# xmcd CD database file
#
# Track frame offsets:
#	150
#	16137
#	36532
#	62711
#	84330
#	103189
#	125794
#	150781
#	172000
#	206850
#	230685
#
# Disc length: 3460 seconds
#
# Revision: 0
# Processed by: cddbd v1.5.1PL0 Copyright (c) Steve Scherf et al.
# Submitted via: CDex 1.51
#
DISCID=930d820b
DTITLE=Jim Zeller - Cut To The Chase
DYEAR=2004
DGENRE=Blues
TTITLE0=Fright Train
TTITLE1=Goodbye To The Lower East Side
TTITLE2=Cool Running Last Survivor
TTITLE3=James Bond Beach
TTITLE4=Cut To The Chase
TTITLE5=Long Lonely Winter
TTITLE6=The Bottom Line
TTITLE7=These Blues Are Made For Walking
TTITLE8=Hanna From Havana
TTITLE9=I Love The Rain
TTITLE10=Setting Sons
EXTD=YEAR: 2004
EXTT0=
EXTT1=
EXTT2=
EXTT3=
EXTT4=
EXTT5=
EXTT6=
EXTT7=
EXTT8=
EXTT9=
EXTT10=
PLAYORDER=
